<svg xmlns="http://www.w3.org/2000/svg" width="256" height="256" viewBox="0 0 100 100"><rect width="100" height="100" rx="50" fill="#f5a623"></rect><path d="M15.58 68.64L-0.99 68.64L-0.99 31.35L15.58 31.35L15.58 68.64ZM14.62 56.93L14.62 56.93L11.06 56.27Q10.93 56.93 10.32 57.76Q9.71 58.58 7.99 58.58L7.99 58.58Q4.86 58.58 4.49 55.05L4.49 55.05L14.26 55.05Q14.49 53.99 14.49 52.90L14.49 52.90Q14.46 50 12.53 48.22Q10.60 46.44 7.50 46.44L7.50 46.44Q3.96 46.44 2.00 48.73Q0.04 51.02 0.04 54.45L0.04 54.45Q0.04 58.18 2.20 60.06Q4.36 61.95 7.69 61.95L7.69 61.95Q10.89 61.95 12.68 60.43Q14.46 58.91 14.62 56.93ZM10.10 52.57L10.10 52.57L4.53 52.57Q4.72 51.19 5.45 50.33Q6.18 49.47 7.50 49.47L7.50 49.47Q9.01 49.47 9.62 50.46Q10.23 51.45 10.10 52.57ZM36.04 68.64L14.85 68.64L14.85 31.35L36.04 31.35L36.04 68.64ZM34.92 55.25L34.92 55.25Q34.92 53.10 33.75 51.62Q32.58 50.13 30.27 49.80L30.27 49.80L30.27 49.67Q32.11 49.37 33.14 48.12Q34.16 46.86 34.16 45.18L34.16 45.18Q34.16 42.91 32.36 41.54Q30.56 40.17 27.63 40.17L27.63 40.17L16.47 40.17L16.47 43.93L18.78 43.93L18.78 57.85L16.47 57.85L16.47 61.62L27.76 61.62Q31.45 61.62 33.19 59.72Q34.92 57.82 34.92 55.25ZM29.41 46.34L29.41 46.34Q29.41 47.43 28.71 48.19Q28.02 48.94 26.14 48.94L26.14 48.94L23.20 48.94L23.20 43.93L26.47 43.93Q27.66 43.93 28.53 44.41Q29.41 44.88 29.41 46.34ZM30.17 55.08L30.17 55.08Q30.17 57.85 26.60 57.85L26.60 57.85L23.20 57.85L23.20 52.38L26.90 52.38Q30.17 52.38 30.17 55.08ZM53.30 68.64L35.38 68.64L35.38 31.35L53.30 31.35L53.30 68.64ZM44.36 46.40L44.36 46.40Q40.33 46.40 38.35 48.75Q36.37 51.09 36.37 54.36L36.37 54.36Q36.37 57.95 38.53 59.95Q40.69 61.95 44.13 61.95L44.13 61.95Q47.69 61.95 50.00 59.83Q52.31 57.72 52.31 54.19L52.31 54.19Q52.31 51.06 50.35 48.73Q48.38 46.40 44.36 46.40ZM44.26 58.68L44.26 58.68Q42.51 58.68 41.63 57.36Q40.76 56.04 40.76 54.13L40.76 54.13Q40.76 52.01 41.70 50.84Q42.64 49.67 44.29 49.67L44.29 49.67Q45.81 49.67 46.86 50.73Q47.92 51.78 47.92 54.06L47.92 54.06Q47.92 56.20 46.91 57.44Q45.91 58.68 44.26 58.68ZM72.87 68.64L52.64 68.64L52.64 31.35L72.87 31.35L72.87 68.64ZM63.93 58.41L63.93 61.62L72.14 61.62L72.14 58.41L70.16 58.41L70.16 51.58Q70.16 48.94 68.61 47.69Q67.06 46.44 64.95 46.44L64.95 46.44Q61.65 46.44 60.16 49.01L60.16 49.01L60.16 46.73L53.76 46.73L53.76 49.97L55.91 49.97L55.91 58.41L53.93 58.41L53.93 61.62L62.14 61.62L62.14 58.41L60.16 58.41L60.16 53.07Q60.20 51.55 61.02 50.61Q61.85 49.67 63.36 49.67L63.36 49.67Q64.62 49.67 65.26 50.49Q65.91 51.32 65.91 53.23L65.91 53.23L65.91 58.41L63.93 58.41ZM82.74 68.64L72.21 68.64L72.21 31.35L82.74 31.35L82.74 68.64ZM79.67 39.67L75.41 39.67L75.41 44.09L79.67 44.09L79.67 39.67ZM73.59 58.41L73.59 61.62L81.81 61.62L81.81 58.41L79.83 58.41L79.83 46.73L73.43 46.73L73.43 49.97L75.57 49.97L75.57 58.41L73.59 58.41ZM100.98 68.64L82.08 68.64L82.08 31.35L100.98 31.35L100.98 68.64ZM92.57 58.41L92.57 61.62L100.19 61.62L100.19 58.41L98.91 58.41L94.68 53.60L97.88 49.97L99.50 49.97L99.50 46.73L92.04 46.73L92.04 49.97L93.82 49.97L91.65 52.48L89.17 52.48L89.17 38.91L82.77 38.91L82.77 42.15L84.91 42.15L84.91 58.41L82.93 58.41L82.93 61.62L90.52 61.62L90.52 58.41L89.17 58.41L89.17 55.48L91.38 55.48L93.96 58.41L92.57 58.41Z" fill="#fff"></path></svg>